<?xml version="1.0" standalone="no"?>
<!DOCTYPE svg PUBLIC "-//W3C//DTD SVG 20010904//EN"
 "http://www.w3.org/TR/2001/REC-SVG-20010904/DTD/svg10.dtd">
<svg version="1.0" xmlns="http://www.w3.org/2000/svg"
 width="191.000000pt" height="76.000000pt" viewBox="0 0 191.000000 76.000000"
 preserveAspectRatio="xMidYMid meet">

<g transform="translate(0.000000,76.000000) scale(0.100000,-0.100000)"
fill="#000000" stroke="none">
<path d="M0 380 l0 -380 955 0 955 0 0 380 0 380 -955 0 -955 0 0 -380z m440
75 c0 -8 -7 -15 -15 -15 -11 0 -15 -12 -15 -45 0 -38 -3 -45 -20 -45 -17 0
-20 7 -20 45 0 33 -4 45 -15 45 -8 0 -15 7 -15 15 0 11 12 15 50 15 38 0 50
-4 50 -15z m150 -1 c0 -12 -10 -14 -47 -12 -66 4 -70 28 -4 28 39 0 51 -4 51
-16z m158 -6 c2 -12 -4 -16 -30 -15 -29 2 -33 -1 -33 -23 0 -22 4 -25 33 -23
26 1 32 -3 30 -15 -5 -26 -62 -28 -87 -3 -42 42 -9 105 52 99 20 -2 33 -9 35
-20z m116 -10 l26 -33 0 33 c0 22 5 32 15 32 12 0 15 -13 15 -60 0 -71 -14
-78 -54 -27 l-26 32 0 -32 c0 -23 -5 -33 -15 -33 -12 0 -15 13 -15 60 0 71 14
78 54 28z m186 28 c0 -2 -10 -29 -21 -60 -16 -40 -27 -56 -40 -56 -15 0 -17 4
-10 23 30 74 43 97 56 97 8 0 15 -2 15 -4z m140 -42 c0 -38 3 -45 18 -42 12 2
18 15 20 46 2 28 8 42 18 42 10 0 14 -13 14 -48 0 -55 -12 -72 -51 -72 -40 0
-59 24 -59 76 0 37 3 44 20 44 17 0 20 -7 20 -46z m223 40 c14 -14 -6 -31 -31
-27 -27 5 -26 4 6 -16 35 -22 40 -42 18 -60 -22 -18 -80 -10 -84 11 -3 15 2
17 27 12 37 -8 41 3 6 16 -53 20 -39 70 20 70 17 0 34 -3 38 -6z m102 -51
c-14 -35 -30 -59 -41 -62 -18 -3 -18 -3 14 76 10 27 23 43 34 43 15 0 14 -6
-7 -57z m-425 -21 c16 -40 8 -50 -25 -32 -28 15 -29 18 -15 56 12 30 20 25 40
-24z m478 21 c5 -16 13 -36 17 -45 9 -23 -18 -24 -44 -2 -15 14 -17 21 -8 45
14 36 22 37 35 2z m-978 2 c0 -10 -10 -15 -30 -15 -16 0 -30 -4 -30 -10 0 -5
14 -10 30 -10 20 0 30 -5 30 -15 0 -11 -12 -15 -50 -15 l-50 0 0 33 c0 43 5
47 57 47 32 0 43 -4 43 -15z"/>
</g>
</svg>
